<svg
    version="1.0"
    xmlns="http://www.w3.org/2000/svg"
    viewBox="0 0 256 256"
    ><path
        d="M53.2 42c-1.8 1.1-3.9 3.5-4.7 5.2-1.4 3-35.9 151.5-37.2 160-.4 3-.1 4.1 2 6.2l2.6 2.6h185l3.6-3.1c2-1.8 3.9-4.7 4.5-6.7 2.4-9.1 36-157.7 36-159.4 0-1-1.1-3-2.5-4.3l-2.4-2.5h-91.8c-89.9 0-91.9 0-95.1 2zm48.3 21.2c2.9 2.9 16.4 17.2 29.9 31.7 22.3 23.8 24.6 26.6 24.6 29.7 0 1.9-.6 4.8-1.4 6.3-1 1.8-16.5 13.6-43.4 32.9-23 16.6-43.1 30.6-44.5 31.3-5.8 2.6-13.7-3-13.7-9.9 0-2.3.8-4.9 1.9-6.3 1-1.3 18.1-14.1 38-28.4 19.8-14.3 36-26.3 36.1-26.6 0-.3-8.9-9.9-19.7-21.4C82.8 74.6 81 72.5 81 68.9c0-6.5 4.3-10.8 10.8-10.9 3.9 0 4.9.5 9.7 5.2zm74.4 112.4c4.2 3.5 4.4 9.8.5 13.8l-2.7 2.6h-51.5l-2.6-3.1c-3.6-4.3-3.5-9.1.3-13l2.9-2.9h50l3.1 2.6z"
    ></path>
</svg>